<svg aria-hidden="true" style="width:0;height:0;position:absolute;overflow:hidden" xmlns="http://www.w3.org/2000/svg"><defs><symbol id="icon-Line-1" viewBox="0 0 10752 32"><path stroke-linejoin="round" stroke-linecap="round" stroke-width="2.667" d="m28 28.001-5.8-5.8"/></symbol><symbol id="icon-Line-2" viewBox="0 0 8960 32"><path stroke-linejoin="round" stroke-linecap="round" stroke-width="2.667" d="m28 28.001-5.8-5.8"/></symbol><symbol id="icon-logo" viewBox="0 0 32 32"><path stroke-linejoin="round" stroke-linecap="round" stroke-width="2.667" d="M26.427 3.606H5.574c-1.605 0-2.907 1.239-2.907 2.768V26.23c0 1.529 1.301 2.768 2.907 2.768h20.853c1.605 0 2.907-1.239 2.907-2.768V6.374c0-1.529-1.301-2.768-2.907-2.768zM9.333 3.606v25.391M22.667 3.606v25.391M2.667 16.301h26.667M2.667 9.954h6.667M2.667 22.649h6.667M22.667 22.649h6.667M22.667 9.954h6.667"/></symbol><symbol id="icon-search" viewBox="0 0 32 32"><path stroke-linejoin="round" stroke-linecap="round" stroke-width="2.667" d="M14.667 25.333c5.891 0 10.667-4.776 10.667-10.667S20.558 3.999 14.667 3.999 4 8.775 4 14.666s4.776 10.667 10.667 10.667zM28 28.001l-5.8-5.8"/></symbol><symbol id="icon-love" viewBox="0 0 34 32"><path d="m17.231 31.705-2.412-2.412C5.859 21.367.001 16.025.001 9.478.001 4.136 4.136.001 9.478.001c2.929 0 5.858 1.378 7.754 3.618 1.895-2.24 4.825-3.618 7.754-3.618 5.342 0 9.477 4.135 9.477 9.477 0 6.548-5.858 11.889-14.818 19.815l-2.412 2.412z"/></symbol><symbol id="icon-close" viewBox="0 0 32 33"><path d="m26.667 7.303-1.97-1.97-7.808 7.808-7.808-7.808-1.97 1.97 7.808 7.808-7.808 7.808 1.97 1.97 7.808-7.808 7.808 7.808 1.97-1.97-7.808-7.808 7.808-7.808z"/></symbol><symbol id="icon-topUp" viewBox="0 0 32 32"><path d="M15 20.933h2v-6.067l2.467 2.467 1.4-1.4L16 11.066l-4.867 4.867 1.4 1.4L15 14.866zm1 8.4q-2.733 0-5.167-1.05t-4.25-2.867-2.867-4.25-1.05-5.167q0-2.767 1.05-5.2t2.867-4.233 4.25-2.85T16 2.666q2.767 0 5.2 1.05t4.233 2.85 2.85 4.233 1.05 5.2q0 2.733-1.05 5.167t-2.85 4.25-4.233 2.867-5.2 1.05zm0-2q4.733 0 8.033-3.317t3.3-8.017q0-4.733-3.3-8.033T16 4.666q-4.7 0-8.017 3.3t-3.317 8.033q0 4.7 3.317 8.017T16 27.333z"/></symbol><symbol id="icon-sun" viewBox="0 0 12 12"><path d="M3.012 6.188a2.812 2.812 0 1 0 5.625.001 2.812 2.812 0 0 0-5.625-.001zm2.812-4.782-.791 1.582h1.582l-.791-1.582zm3.38 1.39-1.678.559 1.118 1.119.56-1.678zm-5.081.56-1.678-.559.559 1.678 1.119-1.119zm-1.51 2.029-1.582.791 1.582.791V5.385zM9.012 6.99l1.582-.791-1.582-.791V6.99zm-3.188 3.979.791-1.582H5.033l.791 1.582zM7.526 9.02l1.678.559-.559-1.678L7.526 9.02zm-5.081.559 1.678-.559-1.119-1.119-.559 1.678z"/></symbol><symbol id="icon-moon" viewBox="0 0 12 12"><path d="M4.086 2.84c0 2.831 1.942 5.126 4.338 5.126.596 0 1.163-.143 1.68-.399a4.434 4.434 0 1 1-5.946-5.624c-.043.292-.071.59-.071.896z"/></symbol><symbol id="icon-arrow-left" viewBox="0 0 32 32"><path d="M25.333 16H6.666M16 25.334l-9.333-9.333L16 6.668"/></symbol></defs></svg>